<svg xmlns="http://www.w3.org/2000/svg" xmlns:xlink="http://www.w3.org/1999/xlink" xmlns:lucid="lucid" width="1112" height="836.27"><g transform="translate(0 0)" lucid:page-tab-id="0_0"><path d="M0 0h1112v836.27H0z" fill="#fff"/><path d="M168.83 119.83c0 15.88-26.34 28.75-58.83 28.75-32.5 0-58.83-12.87-58.83-28.75 0-15.87 26.34-28.75 58.83-28.75 32.5 0 58.83 12.88 58.83 28.75z" stroke="#000" stroke-opacity="0" stroke-width="2" fill="#ff9e56"/><use xlink:href="#a" transform="matrix(1,0,0,1,56.16666666666667,96.08333333333334) translate(41.19018518518518 26.22222222222222)"/><path d="M168.83 188.58c0 15.88-26.34 28.75-58.83 28.75-32.5 0-58.83-12.87-58.83-28.75 0-15.87 26.34-28.75 58.83-28.75 32.5 0 58.83 12.88 58.83 28.75z" stroke="#000" stroke-opacity="0" stroke-width="2" fill="#ff9e56"/><use xlink:href="#b" transform="matrix(1,0,0,1,56.16666666666666,164.83333333333337) translate(33.264259259259255 26.22222222222222)"/><path d="M245.5 156.58c0-4.4 3.58-8 8-8h164c4.42 0 8 3.6 8 8v64c0 4.42-3.58 8-8 8h-164c-4.42 0-8-3.58-8-8z" stroke="#000" stroke-opacity="0" stroke-width="2" fill="#ff9e56"/><use xlink:href="#c" transform="matrix(1,0,0,1,250.49999999999994,153.58333333333337) translate(50.456790123456784 38.28472222222222)"/><path d="M546.84 143.02c3.68-2.45 9.64-2.45 13.32 0l61.68 41.13c3.68 2.45 3.68 6.42 0 8.87l-61.68 41.13c-3.68 2.45-9.64 2.45-13.32 0l-61.68-41.13c-3.68-2.45-3.68-6.42 0-8.87z" stroke="#fe5900" stroke-width="4" fill="#fff"/><use xlink:href="#d" transform="matrix(1,0,0,1,483.5000000000002,143.58333333333337) translate(37.93092592592592 36.72222222222222)"/><use xlink:href="#e" transform="matrix(1,0,0,1,483.5000000000002,143.58333333333337) translate(82.32598765432098 36.72222222222222)"/><use xlink:href="#f" transform="matrix(1,0,0,1,483.5000000000002,143.58333333333337) translate(33.51117283950617 58.05555555555556)"/><path d="M800 156.58c0-4.4 3.58-8 8-8h164c4.42 0 8 3.6 8 8v64c0 4.42-3.58 8-8 8H808c-4.42 0-8-3.58-8-8z" stroke="#000" stroke-opacity="0" stroke-width="2" fill="#ff9e56"/><use xlink:href="#g" transform="matrix(1,0,0,1,805,153.58333333333337) translate(58.432098765432094 38.28472222222222)"/><path d="M942 65.17c0 10.56-23.28 19.12-52 19.12s-52-8.57-52-19.13c0-10.57 23.28-19.13 52-19.13s52 8.56 52 19.13z" stroke="#000" stroke-opacity="0" stroke-width="2" fill="#ff9e56"/><use xlink:href="#h" transform="matrix(1,0,0,1,843,51.041666666666785) translate(31.770432098765433 17.84722222222222)"/><path d="M1070.67 68.42c0 12.52-24.78 22.66-55.34 22.66-30.56 0-55.33-10.14-55.33-22.66s24.77-22.67 55.33-22.67 55.34 10.15 55.34 22.67z" stroke="#000" stroke-opacity="0" stroke-width="2" fill="#ff9e56"/><use xlink:href="#i" transform="matrix(1,0,0,1,965,50.750000000000014) translate(13.066728395061725 20.97222222222222)"/><path d="M932.8 393.13c3.8-2.27 9.94-2.27 13.73 0l61.28 36.77c3.8 2.27 3.8 5.96 0 8.23l-61.27 36.77c-3.8 2.27-9.93 2.27-13.72 0l-61.27-36.77c-3.8-2.27-3.8-5.96 0-8.23z" stroke="#fe5900" stroke-width="4" fill="#fff"/><use xlink:href="#j" transform="matrix(1,0,0,1,869.6666666666665,394.01599420575076) translate(47.807469135802464 31.72222222222222)"/><use xlink:href="#k" transform="matrix(1,0,0,1,869.6666666666665,394.01599420575076) translate(46.819814814814805 53.05555555555556)"/><path d="M849.67 647.45c0-4.42 3.58-8 8-8h164c4.4 0 8 3.58 8 8v64c0 4.42-3.6 8-8 8h-164c-4.42 0-8-3.58-8-8z" stroke="#000" stroke-opacity="0" stroke-width="2" fill="#ff9e56"/><use xlink:href="#l" transform="matrix(1,0,0,1,854.6666666666665,644.4486550781681) translate(28.80246913580246 38.28472222222222)"/><path d="M1029.67 780.92c0 22.1-40.3 40-90 40s-90-17.9-90-40 40.3-40 90-40 90 17.9 90 40z" stroke="#000" stroke-opacity="0" stroke-width="2" fill="#ff9e56"/><use xlink:href="#m" transform="matrix(1,0,0,1,854.6666666666665,745.9166666666667) translate(71.71604938271605 38.28472222222222)"/><path d="M169.2 120.18l75.94 71.9" stroke="#333" fill="none"/><path d="M169.55 119.82l-.7.73-.04-.05.03-.67v-.58l-.02-.13zM245.5 191.74v1.38l-.72-.68.7-.73z" fill="#333"/><path d="M169.33 188.58H245" stroke="#333" fill="none"/><path d="M169.35 189.08h-.54l.03-.5v-.5h.52zM245.5 189.08h-.5v-1h.5z" fill="#333"/><path d="M426 188.58h53.97" stroke="#333" fill="none"/><path d="M426 189.08h-.5v-1h.5zM480.4 189.08h-.44v-1h.6z" fill="#333"/><path d="M627.03 188.58H799.5" stroke="#333" fill="none"/><path d="M627.04 189.08h-.6l.16-1h.44zM800 189.08h-.5v-1h.5z" fill="#333"/><path d="M904.36 148.35L1014.9 91.3" stroke="#333" fill="none"/><path d="M904.5 148.58h-1.67l1.3-.68zM1015.33 91.08l1.13-.02-1.35.7-.36-.7z" fill="#333"/><path d="M895.95 148.1l-5.9-63.3" stroke="#333" fill="none"/><path d="M896.5 148.58h-1l-.05-.46 1-.1zM890 84.3l.5-.02.05.48-1 .1-.05-.6z" fill="#333"/><path d="M939.67 479.08v159.87" stroke="#333" fill="none"/><path d="M939.97 478.62l.2-.03v.5h-1v-.57zM940.17 639.45h-1v-.5h1z" fill="#333"/><path d="M473.83 648c0-4.42 3.6-8 8-8h164c4.42 0 8 3.58 8 8v64c0 4.42-3.58 8-8 8h-164c-4.4 0-8-3.58-8-8z" stroke="#000" stroke-opacity="0" stroke-width="2" fill="#ff9e56"/><use xlink:href="#n" transform="matrix(1,0,0,1,478.8333333333336,645) translate(59.39506172839506 38.28472222222222)"/><path d="M559.5 522.6c3.7-2.45 9.65-2.45 13.32 0l61.7 41.13c3.67 2.45 3.67 6.42 0 8.87l-61.7 41.13c-3.67 2.45-9.63 2.45-13.3 0l-61.7-41.13c-3.67-2.45-3.67-6.42 0-8.87z" stroke="#fe5900" stroke-width="4" fill="#fff"/><use xlink:href="#o" transform="matrix(1,0,0,1,496.16666666666686,523.1649855143769) translate(22.15314814814814 47.97222222222222)"/><use xlink:href="#k" transform="matrix(1,0,0,1,496.16666666666686,523.1649855143769) translate(71.48648148148149 47.97222222222222)"/><path d="M563.83 617.83v21.67" stroke="#333" fill="none"/><path d="M564.33 617.36v.48h-1v-.54zM564.33 640h-1v-.5h1z" fill="#333"/><path d="M639.7 568.16h194.63c6.63 0 12-5.37 12-12V229.08" stroke="#333" fill="none"/><path d="M639.7 568.66h-.58l.15-1h.44zM846.83 229.1h-1v-.52h1z" fill="#333"/><path d="M245.5 407.02c0-4.42 3.58-8 8-8h164c4.42 0 8 3.58 8 8v64c0 4.4-3.58 8-8 8h-164c-4.42 0-8-3.6-8-8z" stroke="#000" stroke-opacity="0" stroke-width="2" fill="#ff9e56"/><use xlink:href="#p" transform="matrix(1,0,0,1,250.49999999999994,404.01599420575076) translate(51.46913580246913 38.28472222222222)"/><path d="M20 526.16c0-4.4 3.58-8 8-8h164c4.42 0 8 3.6 8 8v64c0 4.42-3.58 8-8 8H28c-4.42 0-8-3.58-8-8z" stroke="#000" stroke-opacity="0" stroke-width="2" fill="#ff9e56"/><use xlink:href="#q" transform="matrix(1,0,0,1,24.999999999999986,523.1649855143769) translate(20.87654320987653 38.28472222222222)"/><use xlink:href="#r" transform="matrix(1,0,0,1,24.999999999999986,523.1649855143769) translate(79.04938271604938 38.28472222222222)"/><use xlink:href="#s" transform="matrix(1,0,0,1,24.999999999999986,523.1649855143769) translate(103.74074074074073 38.28472222222222)"/><path d="M158 439.02c0 13.25-21.5 24-48 24s-48-10.75-48-24c0-13.26 21.5-24 48-24s48 10.74 48 24z" stroke="#000" stroke-opacity="0" stroke-width="2" fill="#ff9e56"/><use xlink:href="#t" transform="matrix(1,0,0,1,66.99999999999999,420.01599420575076) translate(19.35067901234568 23.72222222222222)"/><path d="M158.5 439.02H245" stroke="#333" fill="none"/><path d="M158.5 439.52h-.53l.03-.5v-.1l-.02-.4h.53zM245.5 439.52h-.5v-1h.5z" fill="#333"/><path d="M169.2 120.18l75.94 71.9" stroke="#333" fill="none"/><path d="M169.55 119.82l-.7.73-.04-.05.03-.67v-.58l-.02-.13z" fill="#333"/><path d="M245.13 192.07l.37.36" stroke="#333" fill="none"/><path d="M628.5 65.17c0 15.87-30.74 28.75-68.67 28.75-37.92 0-68.66-12.88-68.66-28.75 0-15.88 30.74-28.75 68.66-28.75 37.93 0 68.67 12.87 68.67 28.75z" stroke="#000" stroke-opacity="0" stroke-width="2" fill="#ff9e56"/><use xlink:href="#u" transform="matrix(1,0,0,1,496.16666666666686,41.41666666666674) translate(22.591419753086413 26.22222222222222)"/><path d="M553.57 138.77l6.2-44.36" stroke="#333" fill="none"/><path d="M554.07 138.83l-.07.47-1-.07.08-.54zM559.83 93.92h.5l-.07.57-1-.14.07-.46z" fill="#333"/><path d="M478.5 66.4c0 15.2-30.74 27.52-68.67 27.52-37.92 0-68.66-12.32-68.66-27.52s30.74-27.52 68.66-27.52c37.93 0 68.67 12.32 68.67 27.52z" stroke="#000" stroke-opacity="0" stroke-width="2" fill="#ff9e56"/><use xlink:href="#v" transform="matrix(1,0,0,1,346.16666666666686,43.884678255165305) translate(49.233395061728395 25.72222222222222)"/><path d="M553.02 139.12l-142.7-45.05" stroke="#333" fill="none"/><path d="M555.6 139.4l-2.63-.17.2-.6zM409.83 93.92h.54l-.2.63-2.2-.7z" fill="#333"/><path d="M168.83 257.33c0 15.88-26.34 28.75-58.83 28.75-32.5 0-58.83-12.87-58.83-28.75 0-15.87 26.34-28.75 58.83-28.75 32.5 0 58.83 12.88 58.83 28.75z" stroke="#000" stroke-opacity="0" stroke-width="2" fill="#ff9e56"/><use xlink:href="#w" transform="matrix(1,0,0,1,56.16666666666666,233.58333333333337) translate(33.75808641975308 26.22222222222222)"/><path d="M169.2 257l75.93-68.08" stroke="#333" fill="none"/><path d="M169.55 257.36l-.75.67.03-.7V256.68l.05-.06zM245.5 189.25l-.05.05-.67-.75.72-.64z" fill="#333"/><path d="M168.83 49.92c0 16.52-26.34 29.9-58.83 29.9-32.5 0-58.83-13.38-58.83-29.9C51.17 33.4 77.5 20 110 20c32.5 0 58.83 13.4 58.83 29.92z" stroke="#000" stroke-opacity="0" stroke-width="2" fill="#ff9e56"/><use xlink:href="#x" transform="matrix(1,0,0,1,56.16666666666666,25) translate(33.77777777777777 29.84722222222222)"/><path d="M169.08 50.35l76.18 137.8" stroke="#333" fill="none"/><path d="M169.52 50.12l-.7.4v-1.24l-.04-.5zM245.5 189.62l-.7-1.24.7-.38z" fill="#333"/><path d="M426 439.02h66.64" stroke="#333" fill="none"/><path d="M426 439.52h-.5v-1h.5zM493.07 439.52h-.44v-1h.58z" fill="#333"/><path d="M328.84 265.35c3.68-2.45 9.64-2.45 13.32 0l61.68 41.13c3.68 2.45 3.68 6.42 0 8.87l-61.68 41.13c-3.68 2.45-9.64 2.45-13.32 0l-61.68-41.13c-3.68-2.45-3.68-6.42 0-8.87z" stroke="#fe5900" stroke-width="4" fill="#fff"/><use xlink:href="#y" transform="matrix(1,0,0,1,265.49999999999994,265.91666666666674) translate(40.5729012345679 47.97222222222222)"/><use xlink:href="#z" transform="matrix(1,0,0,1,265.49999999999994,265.91666666666674) translate(79.68401234567901 47.97222222222222)"/><path d="M335.5 229.08v32.02" stroke="#333" fill="none"/><path d="M336 229.1h-1v-.52h1zM336 261.63l-1-.06v-.48h1z" fill="#333"/><path d="M335.5 360.73v37.8" stroke="#333" fill="none"/><path d="M336 360.27v.48h-1v-.55zM336 399.02h-1v-.52h1z" fill="#333"/><path d="M559.5 393.45c3.7-2.45 9.65-2.45 13.32 0l61.7 41.13c3.67 2.45 3.67 6.42 0 8.87l-61.7 41.13c-3.67 2.45-9.63 2.45-13.3 0l-61.7-41.13c-3.67-2.45-3.67-6.42 0-8.87z" stroke="#fe5900" stroke-width="4" fill="#fff"/><use xlink:href="#A" transform="matrix(1,0,0,1,496.16666666666686,394.01599420575076) translate(20.646975308641963 47.97222222222222)"/><use xlink:href="#B" transform="matrix(1,0,0,1,496.16666666666686,394.01599420575076) translate(25.585246913580235 47.97222222222222)"/><use xlink:href="#C" transform="matrix(1,0,0,1,496.16666666666686,394.01599420575076) translate(52.25191358024691 47.97222222222222)"/><use xlink:href="#z" transform="matrix(1,0,0,1,496.16666666666686,394.01599420575076) translate(99.60993827160495 47.97222222222222)"/><path d="M639.7 439.02H805c6.63 0 12-5.38 12-12V229.08" stroke="#333" fill="none"/><path d="M639.7 439.52h-.58l.15-1h.44zM817.5 229.1h-1v-.52h1z" fill="#333"/><path d="M335.5 479.52v38.83" stroke="#333" fill="none"/><path d="M336 479.53h-1v-.5h1zM336 518.88l-1-.06v-.48h1z" fill="#333"/><path d="M328.84 522.6c3.68-2.45 9.64-2.45 13.32 0l61.68 41.13c3.68 2.45 3.68 6.42 0 8.87l-61.68 41.13c-3.68 2.45-9.64 2.45-13.32 0l-61.68-41.13c-3.68-2.45-3.68-6.42 0-8.87z" stroke="#fe5900" stroke-width="4" fill="#fff"/><use xlink:href="#A" transform="matrix(1,0,0,1,265.49999999999994,523.1649855143769) translate(20.646975308641963 47.97222222222222)"/><use xlink:href="#B" transform="matrix(1,0,0,1,265.49999999999994,523.1649855143769) translate(25.585246913580235 47.97222222222222)"/><use xlink:href="#C" transform="matrix(1,0,0,1,265.49999999999994,523.1649855143769) translate(52.25191358024691 47.97222222222222)"/><use xlink:href="#z" transform="matrix(1,0,0,1,265.49999999999994,523.1649855143769) translate(99.60993827160495 47.97222222222222)"/><path d="M261.97 568.16H200.5" stroke="#333" fill="none"/><path d="M262.4 568.66h-.44v-1h.6zM200.5 568.66h-.5v-1h.5z" fill="#333"/><path d="M939.67 229.08v159.87" stroke="#333" fill="none"/><path d="M940.17 229.1h-1v-.52h1zM940.17 389.5l-.8-.1-.2.04v-.5h1z" fill="#333"/><path d="M939.67 740.42v-20.47" stroke="#333" fill="none"/><path d="M940.17 740.93h-1v-.53h1zM940.17 719.96h-1v-.5h1z" fill="#333"/><path d="M778.5 66.4c0 15.88-30.74 28.75-68.67 28.75-37.92 0-68.66-12.87-68.66-28.75s30.74-28.75 68.66-28.75c37.93 0 68.67 12.87 68.67 28.75z" stroke="#000" stroke-opacity="0" stroke-width="2" fill="#ff9e56"/><use xlink:href="#D" transform="matrix(1,0,0,1,646.1666666666669,42.65067246091603) translate(23.554382716049375 26.22222222222222)"/><path d="M553.98 139.13L709.35 95.3" stroke="#333" fill="none"/><path d="M554.04 139.3l-1.58-.1-1.8.35 3.2-.9zM709.48 95.77l-.18-.64.53.02 2-.04z" fill="#333"/><path d="M653.83 780.92c0 22.1-40.3 40-90 40s-90-17.9-90-40 40.3-40 90-40 90 17.9 90 40z" stroke="#000" stroke-opacity="0" stroke-width="2" fill="#ff9e56"/><g><use xlink:href="#E" transform="matrix(1,0,0,1,478.8333333333336,745.9166666666667) translate(52.50617283950617 38.28472222222222)"/></g><path d="M563.83 740.42V720.5" stroke="#333" fill="none"/><path d="M564.33 740.93h-1v-.53h1zM564.33 720.5h-1v-.5h1z" fill="#333"/><path d="M200 736.43c0 22.1-40.3 40-90 40s-90-17.9-90-40 40.3-40 90-40 90 17.9 90 40z" stroke="#000" stroke-opacity="0" stroke-width="2" fill="#ff9e56"/><g><use xlink:href="#F" transform="matrix(1,0,0,1,24.999999999999986,701.4343420247075) translate(22.35802469135801 38.28472222222222)"/></g><path d="M110 695.93v-97.27" stroke="#333" fill="none"/><path d="M110.5 696.45l-.5-.02h-.5v-.5h1zM110.5 598.68h-1v-.52h1z" fill="#333"/><defs><path fill="#fff" d="M30-248c87 1 191-15 191 75 0 78-77 80-158 76V0H30v-248zm33 125c57 0 124 11 124-50 0-59-68-47-124-48v98" id="G"/><path fill="#fff" d="M24-231v-30h32v30H24zM24 0v-190h32V0H24" id="H"/><path fill="#fff" d="M85-194c31 0 48 13 60 33l-1-100h32l1 261h-30c-2-10 0-23-3-31C134-8 116 4 85 4 32 4 16-35 15-94c0-66 23-100 70-100zm9 24c-40 0-46 34-46 75 0 40 6 74 45 74 42 0 51-32 51-76 0-42-9-74-50-73" id="I"/><g id="a"><use transform="matrix(0.04938271604938272,0,0,0.04938271604938272,0,0)" xlink:href="#G"/><use transform="matrix(0.04938271604938272,0,0,0.04938271604938272,11.851851851851853,0)" xlink:href="#H"/><use transform="matrix(0.04938271604938272,0,0,0.04938271604938272,15.753086419753087,0)" xlink:href="#I"/><path fill="#fff" d="M-.9 1.23h27.42v1.3H-.88z"/></g><path fill="#fff" d="M30 0v-248h187v28H63v79h144v27H63v87h162V0H30" id="J"/><path fill="#fff" d="M141-36C126-15 110 5 73 4 37 3 15-17 15-53c-1-64 63-63 125-63 3-35-9-54-41-54-24 1-41 7-42 31l-33-3c5-37 33-52 76-52 45 0 72 20 72 64v82c-1 20 7 32 28 27v20c-31 9-61-2-59-35zM48-53c0 20 12 33 32 33 41-3 63-29 60-74-43 2-92-5-92 41" id="K"/><g id="b"><use transform="matrix(0.04938271604938272,0,0,0.04938271604938272,0,0)" xlink:href="#J"/><use transform="matrix(0.04938271604938272,0,0,0.04938271604938272,11.851851851851853,0)" xlink:href="#I"/><use transform="matrix(0.04938271604938272,0,0,0.04938271604938272,21.7283950617284,0)" xlink:href="#K"/><use transform="matrix(0.04938271604938272,0,0,0.04938271604938272,31.60493827160494,0)" xlink:href="#I"/></g><path fill="#fff" d="M96-169c-40 0-48 33-48 73s9 75 48 75c24 0 41-14 43-38l32 2c-6 37-31 61-74 61-59 0-76-41-82-99-10-93 101-131 147-64 4 7 5 14 7 22l-32 3c-4-21-16-35-41-35" id="L"/><path fill="#fff" d="M100-194c63 0 86 42 84 106H49c0 40 14 67 53 68 26 1 43-12 49-29l28 8c-11 28-37 45-77 45C44 4 14-33 15-96c1-61 26-98 85-98zm52 81c6-60-76-77-97-28-3 7-6 17-6 28h103" id="M"/><path fill="#fff" d="M117-194c89-4 53 116 60 194h-32v-121c0-31-8-49-39-48C34-167 62-67 57 0H25l-1-190h30c1 10-1 24 2 32 11-22 29-35 61-36" id="N"/><path fill="#fff" d="M59-47c-2 24 18 29 38 22v24C64 9 27 4 27-40v-127H5v-23h24l9-43h21v43h35v23H59v120" id="O"/><g id="c"><use transform="matrix(0.04938271604938272,0,0,0.04938271604938272,0,0)" xlink:href="#G"/><use transform="matrix(0.04938271604938272,0,0,0.04938271604938272,11.851851851851853,0)" xlink:href="#K"/><use transform="matrix(0.04938271604938272,0,0,0.04938271604938272,21.7283950617284,0)" xlink:href="#L"/><use transform="matrix(0.04938271604938272,0,0,0.04938271604938272,30.617283950617285,0)" xlink:href="#H"/><use transform="matrix(0.04938271604938272,0,0,0.04938271604938272,34.518518518518526,0)" xlink:href="#M"/><use transform="matrix(0.04938271604938272,0,0,0.04938271604938272,44.39506172839507,0)" xlink:href="#N"/><use transform="matrix(0.04938271604938272,0,0,0.04938271604938272,54.27160493827161,0)" xlink:href="#O"/><use transform="matrix(0.04938271604938272,0,0,0.04938271604938272,59.209876543209894,0)" xlink:href="#M"/></g><path fill="#333" d="M59-47c-2 24 18 29 38 22v24C64 9 27 4 27-40v-127H5v-23h24l9-43h21v43h35v23H59v120" id="P"/><path fill="#333" d="M100-194c62-1 85 37 85 99 1 63-27 99-86 99S16-35 15-95c0-66 28-99 85-99zM99-20c44 1 53-31 53-75 0-43-8-75-51-75s-53 32-53 75 10 74 51 75" id="Q"/><path fill="#333" d="M210-169c-67 3-38 105-44 169h-31v-121c0-29-5-50-35-48C34-165 62-65 56 0H25l-1-190h30c1 10-1 24 2 32 10-44 99-50 107 0 11-21 27-35 58-36 85-2 47 119 55 194h-31v-121c0-29-5-49-35-48" id="R"/><path fill="#333" d="M141-36C126-15 110 5 73 4 37 3 15-17 15-53c-1-64 63-63 125-63 3-35-9-54-41-54-24 1-41 7-42 31l-33-3c5-37 33-52 76-52 45 0 72 20 72 64v82c-1 20 7 32 28 27v20c-31 9-61-2-59-35zM48-53c0 20 12 33 32 33 41-3 63-29 60-74-43 2-92-5-92 41" id="S"/><g id="d"><use transform="matrix(0.04938271604938272,0,0,0.04938271604938272,0,0)" xlink:href="#P"/><use transform="matrix(0.04938271604938272,0,0,0.04938271604938272,4.938271604938272,0)" xlink:href="#Q"/><use transform="matrix(0.04938271604938272,0,0,0.04938271604938272,14.814814814814817,0)" xlink:href="#R"/><use transform="matrix(0.04938271604938272,0,0,0.04938271604938272,29.58024691358025,0)" xlink:href="#S"/></g><path fill="#333" d="M85-194c31 0 48 13 60 33l-1-100h32l1 261h-30c-2-10 0-23-3-31C134-8 116 4 85 4 32 4 16-35 15-94c0-66 23-100 70-100zm9 24c-40 0-46 34-46 75 0 40 6 74 45 74 42 0 51-32 51-76 0-42-9-74-50-73" id="T"/><path fill="#333" d="M100-194c63 0 86 42 84 106H49c0 40 14 67 53 68 26 1 43-12 49-29l28 8c-11 28-37 45-77 45C44 4 14-33 15-96c1-61 26-98 85-98zm52 81c6-60-76-77-97-28-3 7-6 17-6 28h103" id="U"/><g id="e"><use transform="matrix(0.04938271604938272,0,0,0.04938271604938272,0,0)" xlink:href="#T"/><use transform="matrix(0.04938271604938272,0,0,0.04938271604938272,9.876543209876544,0)" xlink:href="#U"/></g><path fill="#333" d="M84 4C-5 8 30-112 23-190h32v120c0 31 7 50 39 49 72-2 45-101 50-169h31l1 190h-30c-1-10 1-25-2-33-11 22-28 36-60 37" id="V"/><path fill="#333" d="M135-143c-3-34-86-38-87 0 15 53 115 12 119 90S17 21 10-45l28-5c4 36 97 45 98 0-10-56-113-15-118-90-4-57 82-63 122-42 12 7 21 19 24 35" id="W"/><path fill="#333" d="M114-163C36-179 61-72 57 0H25l-1-190h30c1 12-1 29 2 39 6-27 23-49 58-41v29" id="X"/><g id="f"><use transform="matrix(0.04938271604938272,0,0,0.04938271604938272,0,0)" xlink:href="#R"/><use transform="matrix(0.04938271604938272,0,0,0.04938271604938272,14.765432098765434,0)" xlink:href="#V"/><use transform="matrix(0.04938271604938272,0,0,0.04938271604938272,24.641975308641978,0)" xlink:href="#U"/><use transform="matrix(0.04938271604938272,0,0,0.04938271604938272,34.51851851851852,0)" xlink:href="#W"/><use transform="matrix(0.04938271604938272,0,0,0.04938271604938272,43.407407407407405,0)" xlink:href="#P"/><use transform="matrix(0.04938271604938272,0,0,0.04938271604938272,48.34567901234568,0)" xlink:href="#X"/><use transform="matrix(0.04938271604938272,0,0,0.04938271604938272,54.22222222222223,0)" xlink:href="#S"/><use transform="matrix(0.04938271604938272,0,0,0.04938271604938272,64.09876543209876,0)" xlink:href="#W"/></g><path fill="#fff" d="M212-179c-10-28-35-45-73-45-59 0-87 40-87 99 0 60 29 101 89 101 43 0 62-24 78-52l27 14C228-24 195 4 139 4 59 4 22-46 18-125c-6-104 99-153 187-111 19 9 31 26 39 46" id="Y"/><path fill="#fff" d="M24 0v-261h32V0H24" id="Z"/><g id="g"><use transform="matrix(0.04938271604938272,0,0,0.04938271604938272,0,0)" xlink:href="#Y"/><use transform="matrix(0.04938271604938272,0,0,0.04938271604938272,12.790123456790125,0)" xlink:href="#Z"/><use transform="matrix(0.04938271604938272,0,0,0.04938271604938272,16.69135802469136,0)" xlink:href="#H"/><use transform="matrix(0.04938271604938272,0,0,0.04938271604938272,20.592592592592595,0)" xlink:href="#N"/><use transform="matrix(0.04938271604938272,0,0,0.04938271604938272,30.46913580246914,0)" xlink:href="#H"/><use transform="matrix(0.04938271604938272,0,0,0.04938271604938272,34.370370370370374,0)" xlink:href="#L"/><use transform="matrix(0.04938271604938272,0,0,0.04938271604938272,43.25925925925927,0)" xlink:href="#K"/></g><g id="h"><use transform="matrix(0.04938271604938272,0,0,0.04938271604938272,0,0)" xlink:href="#Y"/><use transform="matrix(0.04938271604938272,0,0,0.04938271604938272,12.790123456790125,0)" xlink:href="#Z"/><use transform="matrix(0.04938271604938272,0,0,0.04938271604938272,16.69135802469136,0)" xlink:href="#H"/><use transform="matrix(0.04938271604938272,0,0,0.04938271604938272,20.592592592592595,0)" xlink:href="#I"/><path fill="#fff" d="M-.9 1.23h32.26v1.3H-.9z"/></g><path fill="#fff" d="M30-248c118-7 216 8 213 122C240-48 200 0 122 0H30v-248zM63-27c89 8 146-16 146-99s-60-101-146-95v194" id="aa"/><path fill="#fff" d="M114-163C36-179 61-72 57 0H25l-1-190h30c1 12-1 29 2 39 6-27 23-49 58-41v29" id="ab"/><path fill="#fff" d="M100-194c62-1 85 37 85 99 1 63-27 99-86 99S16-35 15-95c0-66 28-99 85-99zM99-20c44 1 53-31 53-75 0-43-8-75-51-75s-53 32-53 75 10 74 51 75" id="ac"/><g id="i"><use transform="matrix(0.04938271604938272,0,0,0.04938271604938272,0,0)" xlink:href="#aa"/><use transform="matrix(0.04938271604938272,0,0,0.04938271604938272,12.790123456790125,0)" xlink:href="#H"/><use transform="matrix(0.04938271604938272,0,0,0.04938271604938272,16.69135802469136,0)" xlink:href="#ab"/><use transform="matrix(0.04938271604938272,0,0,0.04938271604938272,22.567901234567906,0)" xlink:href="#M"/><use transform="matrix(0.04938271604938272,0,0,0.04938271604938272,32.44444444444445,0)" xlink:href="#L"/><use transform="matrix(0.04938271604938272,0,0,0.04938271604938272,41.33333333333334,0)" xlink:href="#L"/><use transform="matrix(0.04938271604938272,0,0,0.04938271604938272,50.22222222222223,0)" xlink:href="#H"/><use transform="matrix(0.04938271604938272,0,0,0.04938271604938272,54.12345679012346,0)" xlink:href="#ac"/><use transform="matrix(0.04938271604938272,0,0,0.04938271604938272,64,0)" xlink:href="#N"/></g><path fill="#333" d="M30 0v-248h187v28H63v79h144v27H63v87h162V0H30" id="ad"/><path fill="#333" d="M117-194c89-4 53 116 60 194h-32v-121c0-31-8-49-39-48C34-167 62-67 57 0H25l-1-190h30c1 10-1 24 2 32 11-22 29-35 61-36" id="ae"/><path fill="#333" d="M108 0H70L1-190h34L89-25l56-165h34" id="af"/><path fill="#333" d="M24-231v-30h32v30H24zM24 0v-190h32V0H24" id="ag"/><g id="j"><use transform="matrix(0.04938271604938272,0,0,0.04938271604938272,0,0)" xlink:href="#ad"/><use transform="matrix(0.04938271604938272,0,0,0.04938271604938272,11.851851851851853,0)" xlink:href="#ae"/><use transform="matrix(0.04938271604938272,0,0,0.04938271604938272,21.7283950617284,0)" xlink:href="#af"/><use transform="matrix(0.04938271604938272,0,0,0.04938271604938272,30.617283950617285,0)" xlink:href="#ag"/><use transform="matrix(0.04938271604938272,0,0,0.04938271604938272,34.518518518518526,0)" xlink:href="#S"/></g><path fill="#333" d="M30-248c118-7 216 8 213 122C240-48 200 0 122 0H30v-248zM63-27c89 8 146-16 146-99s-60-101-146-95v194" id="ah"/><g id="k"><use transform="matrix(0.04938271604938272,0,0,0.04938271604938272,0,0)" xlink:href="#ah"/><use transform="matrix(0.04938271604938272,0,0,0.04938271604938272,12.790123456790125,0)" xlink:href="#S"/><use transform="matrix(0.04938271604938272,0,0,0.04938271604938272,22.66666666666667,0)" xlink:href="#P"/><use transform="matrix(0.04938271604938272,0,0,0.04938271604938272,27.604938271604947,0)" xlink:href="#Q"/><use transform="matrix(0.04938271604938272,0,0,0.04938271604938272,37.48148148148149,0)" xlink:href="#W"/></g><path fill="#fff" d="M232-93c-1 65-40 97-104 97C67 4 28-28 28-90v-158h33c8 89-33 224 67 224 102 0 64-133 71-224h33v155" id="ai"/><path fill="#fff" d="M108 0H70L1-190h34L89-25l56-165h34" id="aj"/><path fill="#fff" d="M135-143c-3-34-86-38-87 0 15 53 115 12 119 90S17 21 10-45l28-5c4 36 97 45 98 0-10-56-113-15-118-90-4-57 82-63 122-42 12 7 21 19 24 35" id="ak"/><g id="l"><use transform="matrix(0.04938271604938272,0,0,0.04938271604938272,0,0)" xlink:href="#ai"/><use transform="matrix(0.04938271604938272,0,0,0.04938271604938272,12.790123456790125,0)" xlink:href="#N"/><use transform="matrix(0.04938271604938272,0,0,0.04938271604938272,22.66666666666667,0)" xlink:href="#H"/><use transform="matrix(0.04938271604938272,0,0,0.04938271604938272,26.567901234567902,0)" xlink:href="#aj"/><use transform="matrix(0.04938271604938272,0,0,0.04938271604938272,35.4567901234568,0)" xlink:href="#M"/><use transform="matrix(0.04938271604938272,0,0,0.04938271604938272,45.33333333333334,0)" xlink:href="#ab"/><use transform="matrix(0.04938271604938272,0,0,0.04938271604938272,51.209876543209894,0)" xlink:href="#ak"/><use transform="matrix(0.04938271604938272,0,0,0.04938271604938272,60.09876543209877,0)" xlink:href="#H"/><use transform="matrix(0.04938271604938272,0,0,0.04938271604938272,64.00000000000001,0)" xlink:href="#I"/><use transform="matrix(0.04938271604938272,0,0,0.04938271604938272,73.87654320987656,0)" xlink:href="#K"/><use transform="matrix(0.04938271604938272,0,0,0.04938271604938272,83.7530864197531,0)" xlink:href="#I"/><use transform="matrix(0.04938271604938272,0,0,0.04938271604938272,93.62962962962965,0)" xlink:href="#M"/><use transform="matrix(0.04938271604938272,0,0,0.04938271604938272,103.50617283950618,0)" xlink:href="#ak"/></g><g id="m"><use transform="matrix(0.04938271604938272,0,0,0.04938271604938272,0,0)" xlink:href="#ai"/><use transform="matrix(0.04938271604938272,0,0,0.04938271604938272,12.790123456790125,0)" xlink:href="#H"/><use transform="matrix(0.04938271604938272,0,0,0.04938271604938272,16.69135802469136,0)" xlink:href="#I"/></g><path fill="#fff" d="M240 0l2-218c-23 76-54 145-80 218h-23L58-218 59 0H30v-248h44l77 211c21-75 51-140 76-211h43V0h-30" id="al"/><g id="n"><use transform="matrix(0.04938271604938272,0,0,0.04938271604938272,0,0)" xlink:href="#al"/><use transform="matrix(0.04938271604938272,0,0,0.04938271604938272,14.765432098765434,0)" xlink:href="#H"/><use transform="matrix(0.04938271604938272,0,0,0.04938271604938272,18.666666666666668,0)" xlink:href="#N"/><use transform="matrix(0.04938271604938272,0,0,0.04938271604938272,28.543209876543212,0)" xlink:href="#ak"/><use transform="matrix(0.04938271604938272,0,0,0.04938271604938272,37.4320987654321,0)" xlink:href="#K"/><use transform="matrix(0.04938271604938272,0,0,0.04938271604938272,47.308641975308646,0)" xlink:href="#Z"/></g><g id="o"><use transform="matrix(0.04938271604938272,0,0,0.04938271604938272,0,0)" xlink:href="#ad"/><use transform="matrix(0.04938271604938272,0,0,0.04938271604938272,11.851851851851853,0)" xlink:href="#ae"/><use transform="matrix(0.04938271604938272,0,0,0.04938271604938272,21.7283950617284,0)" xlink:href="#af"/><use transform="matrix(0.04938271604938272,0,0,0.04938271604938272,30.617283950617285,0)" xlink:href="#ag"/><use transform="matrix(0.04938271604938272,0,0,0.04938271604938272,34.518518518518526,0)" xlink:href="#S"/></g><path fill="#fff" d="M210-169c-67 3-38 105-44 169h-31v-121c0-29-5-50-35-48C34-165 62-65 56 0H25l-1-190h30c1 10-1 24 2 32 10-44 99-50 107 0 11-21 27-35 58-36 85-2 47 119 55 194h-31v-121c0-29-5-49-35-48" id="am"/><path fill="#fff" d="M84 4C-5 8 30-112 23-190h32v120c0 31 7 50 39 49 72-2 45-101 50-169h31l1 190h-30c-1-10 1-25-2-33-11 22-28 36-60 37" id="an"/><g id="p"><use transform="matrix(0.04938271604938272,0,0,0.04938271604938272,0,0)" xlink:href="#Y"/><use transform="matrix(0.04938271604938272,0,0,0.04938271604938272,12.790123456790125,0)" xlink:href="#ac"/><use transform="matrix(0.04938271604938272,0,0,0.04938271604938272,22.66666666666667,0)" xlink:href="#am"/><use transform="matrix(0.04938271604938272,0,0,0.04938271604938272,37.4320987654321,0)" xlink:href="#an"/><use transform="matrix(0.04938271604938272,0,0,0.04938271604938272,47.308641975308646,0)" xlink:href="#N"/><use transform="matrix(0.04938271604938272,0,0,0.04938271604938272,57.18518518518519,0)" xlink:href="#K"/></g><g id="q"><use transform="matrix(0.04938271604938272,0,0,0.04938271604938272,0,0)" xlink:href="#Y"/><use transform="matrix(0.04938271604938272,0,0,0.04938271604938272,12.790123456790125,0)" xlink:href="#M"/><use transform="matrix(0.04938271604938272,0,0,0.04938271604938272,22.66666666666667,0)" xlink:href="#N"/><use transform="matrix(0.04938271604938272,0,0,0.04938271604938272,32.543209876543216,0)" xlink:href="#O"/><use transform="matrix(0.04938271604938272,0,0,0.04938271604938272,37.48148148148149,0)" xlink:href="#ab"/><use transform="matrix(0.04938271604938272,0,0,0.04938271604938272,43.35802469135803,0)" xlink:href="#ac"/></g><g id="r"><use transform="matrix(0.04938271604938272,0,0,0.04938271604938272,0,0)" xlink:href="#I"/><use transform="matrix(0.04938271604938272,0,0,0.04938271604938272,9.876543209876544,0)" xlink:href="#M"/></g><path fill="#fff" d="M185-189c-5-48-123-54-124 2 14 75 158 14 163 119 3 78-121 87-175 55-17-10-28-26-33-46l33-7c5 56 141 63 141-1 0-78-155-14-162-118-5-82 145-84 179-34 5 7 8 16 11 25" id="ao"/><g id="s"><use transform="matrix(0.04938271604938272,0,0,0.04938271604938272,0,0)" xlink:href="#ao"/><use transform="matrix(0.04938271604938272,0,0,0.04938271604938272,11.851851851851853,0)" xlink:href="#K"/><use transform="matrix(0.04938271604938272,0,0,0.04938271604938272,21.7283950617284,0)" xlink:href="#Z"/><use transform="matrix(0.04938271604938272,0,0,0.04938271604938272,25.629629629629633,0)" xlink:href="#an"/><use transform="matrix(0.04938271604938272,0,0,0.04938271604938272,35.50617283950618,0)" xlink:href="#I"/></g><g id="t"><use transform="matrix(0.04938271604938272,0,0,0.04938271604938272,0,0)" xlink:href="#L"/><use transform="matrix(0.04938271604938272,0,0,0.04938271604938272,8.88888888888889,0)" xlink:href="#ac"/><use transform="matrix(0.04938271604938272,0,0,0.04938271604938272,18.765432098765434,0)" xlink:href="#am"/><use transform="matrix(0.04938271604938272,0,0,0.04938271604938272,33.53086419753087,0)" xlink:href="#H"/><use transform="matrix(0.04938271604938272,0,0,0.04938271604938272,37.4320987654321,0)" xlink:href="#I"/><path fill="#fff" d="M-.9 1.23h49.1v1.3H-.9z"/></g><path fill="#fff" d="M115-194c55 1 70 41 70 98S169 2 115 4C84 4 66-9 55-30l1 105H24l-1-265h31l2 30c10-21 28-34 59-34zm-8 174c40 0 45-34 45-75s-6-73-45-74c-42 0-51 32-51 76 0 43 10 73 51 73" id="ap"/><g id="u"><use transform="matrix(0.04938271604938272,0,0,0.04938271604938272,0,0)" xlink:href="#O"/><use transform="matrix(0.04938271604938272,0,0,0.04938271604938272,4.938271604938272,0)" xlink:href="#H"/><use transform="matrix(0.04938271604938272,0,0,0.04938271604938272,8.839506172839506,0)" xlink:href="#am"/><use transform="matrix(0.04938271604938272,0,0,0.04938271604938272,23.60493827160494,0)" xlink:href="#M"/><use transform="matrix(0.04938271604938272,0,0,0.04938271604938272,33.48148148148148,0)" xlink:href="#ak"/><use transform="matrix(0.04938271604938272,0,0,0.04938271604938272,42.37037037037037,0)" xlink:href="#O"/><use transform="matrix(0.04938271604938272,0,0,0.04938271604938272,47.30864197530864,0)" xlink:href="#K"/><use transform="matrix(0.04938271604938272,0,0,0.04938271604938272,57.185185185185176,0)" xlink:href="#am"/><use transform="matrix(0.04938271604938272,0,0,0.04938271604938272,71.95061728395062,0)" xlink:href="#ap"/></g><g id="v"><use transform="matrix(0.04938271604938272,0,0,0.04938271604938272,0,0)" xlink:href="#al"/><use transform="matrix(0.04938271604938272,0,0,0.04938271604938272,14.765432098765434,0)" xlink:href="#H"/><use transform="matrix(0.04938271604938272,0,0,0.04938271604938272,18.666666666666668,0)" xlink:href="#I"/><path fill="#fff" d="M-.9 1.23h30.33v1.3H-.9z"/></g><path fill="#fff" d="M141 0L90-78 38 0H4l68-98-65-92h35l48 74 47-74h35l-64 92 68 98h-35" id="aq"/><g id="w"><use transform="matrix(0.04938271604938272,0,0,0.04938271604938272,0,0)" xlink:href="#ao"/><use transform="matrix(0.04938271604938272,0,0,0.04938271604938272,11.851851851851853,0)" xlink:href="#M"/><use transform="matrix(0.04938271604938272,0,0,0.04938271604938272,21.7283950617284,0)" xlink:href="#aq"/><use transform="matrix(0.04938271604938272,0,0,0.04938271604938272,30.617283950617285,0)" xlink:href="#ac"/></g><g id="x"><use transform="matrix(0.04938271604938272,0,0,0.04938271604938272,0,0)" xlink:href="#J"/><use transform="matrix(0.04938271604938272,0,0,0.04938271604938272,11.851851851851853,0)" xlink:href="#O"/><use transform="matrix(0.04938271604938272,0,0,0.04938271604938272,16.790123456790127,0)" xlink:href="#N"/><use transform="matrix(0.04938271604938272,0,0,0.04938271604938272,26.666666666666668,0)" xlink:href="#H"/><use transform="matrix(0.04938271604938272,0,0,0.04938271604938272,30.567901234567906,0)" xlink:href="#K"/></g><path fill="#333" d="M137 0h-34L2-248h35l83 218 83-218h36" id="ar"/><g id="y"><use transform="matrix(0.04938271604938272,0,0,0.04938271604938272,0,0)" xlink:href="#ar"/><use transform="matrix(0.04938271604938272,0,0,0.04938271604938272,11.506172839506174,0)" xlink:href="#ag"/><use transform="matrix(0.04938271604938272,0,0,0.04938271604938272,15.407407407407408,0)" xlink:href="#af"/><use transform="matrix(0.04938271604938272,0,0,0.04938271604938272,24.296296296296298,0)" xlink:href="#U"/></g><g id="z"><use transform="matrix(0.04938271604938272,0,0,0.04938271604938272,0,0)" xlink:href="#U"/><use transform="matrix(0.04938271604938272,0,0,0.04938271604938272,9.876543209876544,0)" xlink:href="#ae"/></g><path fill="#333" d="M185-189c-5-48-123-54-124 2 14 75 158 14 163 119 3 78-121 87-175 55-17-10-28-26-33-46l33-7c5 56 141 63 141-1 0-78-155-14-162-118-5-82 145-84 179-34 5 7 8 16 11 25" id="as"/><g id="B"><use transform="matrix(0.04938271604938272,0,0,0.04938271604938272,0,0)" xlink:href="#as"/><use transform="matrix(0.04938271604938272,0,0,0.04938271604938272,11.851851851851853,0)" xlink:href="#U"/></g><path fill="#333" d="M115-194c53 0 69 39 70 98 0 66-23 100-70 100C84 3 66-7 56-30L54 0H23l1-261h32v101c10-23 28-34 59-34zm-8 174c40 0 45-34 45-75 0-40-5-75-45-74-42 0-51 32-51 76 0 43 10 73 51 73" id="at"/><path fill="#333" d="M96-169c-40 0-48 33-48 73s9 75 48 75c24 0 41-14 43-38l32 2c-6 37-31 61-74 61-59 0-76-41-82-99-10-93 101-131 147-64 4 7 5 14 7 22l-32 3c-4-21-16-35-41-35" id="au"/><g id="C"><use transform="matrix(0.04938271604938272,0,0,0.04938271604938272,0,0)" xlink:href="#V"/><use transform="matrix(0.04938271604938272,0,0,0.04938271604938272,9.876543209876544,0)" xlink:href="#at"/><use transform="matrix(0.04938271604938272,0,0,0.04938271604938272,19.75308641975309,0)" xlink:href="#ag"/><use transform="matrix(0.04938271604938272,0,0,0.04938271604938272,23.654320987654323,0)" xlink:href="#au"/><use transform="matrix(0.04938271604938272,0,0,0.04938271604938272,32.543209876543216,0)" xlink:href="#S"/></g><path fill="#fff" d="M233-177c-1 41-23 64-60 70L243 0h-38l-65-103H63V0H30v-248c88 3 205-21 203 71zM63-129c60-2 137 13 137-47 0-61-80-42-137-45v92" id="av"/><g id="D"><use transform="matrix(0.04938271604938272,0,0,0.04938271604938272,0,0)" xlink:href="#av"/><use transform="matrix(0.04938271604938272,0,0,0.04938271604938272,12.790123456790125,0)" xlink:href="#M"/><use transform="matrix(0.04938271604938272,0,0,0.04938271604938272,22.66666666666667,0)" xlink:href="#ak"/><use transform="matrix(0.04938271604938272,0,0,0.04938271604938272,31.555555555555557,0)" xlink:href="#an"/><use transform="matrix(0.04938271604938272,0,0,0.04938271604938272,41.4320987654321,0)" xlink:href="#Z"/><use transform="matrix(0.04938271604938272,0,0,0.04938271604938272,45.333333333333336,0)" xlink:href="#O"/><use transform="matrix(0.04938271604938272,0,0,0.04938271604938272,50.27160493827161,0)" xlink:href="#K"/><use transform="matrix(0.04938271604938272,0,0,0.04938271604938272,60.14814814814815,0)" xlink:href="#I"/><use transform="matrix(0.04938271604938272,0,0,0.04938271604938272,70.0246913580247,0)" xlink:href="#ac"/></g><g id="E"><use transform="matrix(0.04938271604938272,0,0,0.04938271604938272,0,0)" xlink:href="#al"/><use transform="matrix(0.04938271604938272,0,0,0.04938271604938272,14.765432098765434,0)" xlink:href="#H"/><use transform="matrix(0.04938271604938272,0,0,0.04938271604938272,18.666666666666668,0)" xlink:href="#N"/><use transform="matrix(0.04938271604938272,0,0,0.04938271604938272,28.543209876543212,0)" xlink:href="#ak"/><use transform="matrix(0.04938271604938272,0,0,0.04938271604938272,37.4320987654321,0)" xlink:href="#K"/><use transform="matrix(0.04938271604938272,0,0,0.04938271604938272,47.308641975308646,0)" xlink:href="#Z"/><use transform="matrix(0.04938271604938272,0,0,0.04938271604938272,51.20987654320988,0)" xlink:href="#H"/><use transform="matrix(0.04938271604938272,0,0,0.04938271604938272,55.111111111111114,0)" xlink:href="#I"/></g><g id="F"><use transform="matrix(0.04938271604938272,0,0,0.04938271604938272,0,0)" xlink:href="#L"/><use transform="matrix(0.04938271604938272,0,0,0.04938271604938272,8.88888888888889,0)" xlink:href="#M"/><use transform="matrix(0.04938271604938272,0,0,0.04938271604938272,18.765432098765434,0)" xlink:href="#N"/><use transform="matrix(0.04938271604938272,0,0,0.04938271604938272,28.641975308641978,0)" xlink:href="#O"/><use transform="matrix(0.04938271604938272,0,0,0.04938271604938272,33.580246913580254,0)" xlink:href="#ab"/><use transform="matrix(0.04938271604938272,0,0,0.04938271604938272,39.4567901234568,0)" xlink:href="#ac"/><use transform="matrix(0.04938271604938272,0,0,0.04938271604938272,49.33333333333334,0)" xlink:href="#I"/><use transform="matrix(0.04938271604938272,0,0,0.04938271604938272,59.209876543209894,0)" xlink:href="#M"/><use transform="matrix(0.04938271604938272,0,0,0.04938271604938272,69.08641975308643,0)" xlink:href="#ak"/><use transform="matrix(0.04938271604938272,0,0,0.04938271604938272,77.97530864197532,0)" xlink:href="#K"/><use transform="matrix(0.04938271604938272,0,0,0.04938271604938272,87.85185185185186,0)" xlink:href="#Z"/><use transform="matrix(0.04938271604938272,0,0,0.04938271604938272,91.7530864197531,0)" xlink:href="#an"/><use transform="matrix(0.04938271604938272,0,0,0.04938271604938272,101.62962962962963,0)" xlink:href="#I"/><use transform="matrix(0.04938271604938272,0,0,0.04938271604938272,111.50617283950618,0)" xlink:href="#H"/><use transform="matrix(0.04938271604938272,0,0,0.04938271604938272,115.40740740740743,0)" xlink:href="#I"/></g></defs></g></svg>